<svg xmlns="http://www.w3.org/2000/svg" viewBox="0 0 70 70"><defs><style>.cls-1{fill:#726658;}</style></defs><title>male-2</title><g id="male-2"><rect class="cls-1" x="50" y="58.5" width="2" height="6"/><rect class="cls-1" x="18" y="58.5" width="2" height="6"/><path class="cls-1" d="M10,64.5H8v-9c0-5.74,4.23-10.44,11.62-12.93l5.94-3C26.73,39.07,28,38.09,28,37.5v-2h2v2c0,2.19-3,3.64-3.59,3.91l-6,3-.13.05C16.46,45.73,10,48.88,10,55.5Z"/><path class="cls-1" d="M62,64.5H60v-9c0-6.62-6.46-9.77-10.32-11.05l-.13-.05-6-3C43,41.14,40,39.69,40,37.5v-2h2v2c0,.65,1.42,1.65,2.41,2.09l6,3C57.77,45.06,62,49.76,62,55.5Z"/><path class="cls-1" d="M24.6,21.5H24a1,1,0,0,1-1-1v-9a4,4,0,0,1,4-4h.13A4,4,0,0,1,31,4.5H42a5,5,0,0,1,5,5v10a1,1,0,0,1-1,1H44c-2.33,0-3.8-3.63-4.53-6.09L37.7,16.13a1,1,0,0,1-.7.28H29a1,1,0,0,0-1,1V19.5a1.72,1.72,0,0,1-.51,1.25A4.1,4.1,0,0,1,24.6,21.5ZM27,9.5a2,2,0,0,0-2,2v8a3.6,3.6,0,0,0,1-.13v-2a3,3,0,0,1,3-3h7.59l2.71-2.63a1,1,0,0,1,1.67.5c.74,3.26,2.18,6.22,3,6.22h1v-9a3,3,0,0,0-3-3H31a2,2,0,0,0-2,2,1,1,0,0,1-1,1Z"/><path class="cls-1" d="M35,45.82c-5.7,0-10-2.15-10-5h2c0,1.22,3.12,3,8,3s8-1.78,8-3h2C45,43.67,40.7,45.82,35,45.82Z"/><path class="cls-1" d="M35,38.5c-4.19,0-10.8-3.43-11-12.58l-.71-.71A1,1,0,0,1,23,24.5v-4h2v3.59l.71.71a1,1,0,0,1,.29.71c0,4.25,2.44,11,9,11s9-6.75,9-11a1,1,0,0,1,.29-.71l.71-.71V19.5h2v5a1,1,0,0,1-.29.71l-.71.71C45.8,35.07,39.19,38.5,35,38.5Z"/></g></svg>